<?xml version="1.0" encoding="utf-8"?>
<svg viewBox="0 0 500 500" xmlns="http://www.w3.org/2000/svg">
  <title>Produce by Acme CAD Converter</title>
  <desc>Produce by Acme CAD Converter</desc>
  <polyline points="262.569 193.96 263.209 193.666 263.773 193.249 264.237 192.723 264.588 192.112 264.801 191.444 264.872 190.747" style="fill: none; stroke: black; vector-effect: non-scaling-stroke; stroke-linecap: round; stroke-linejoin: round; stroke-width: 14px;"/>
  <polyline points="264.872 141.341 264.872 190.747" style="fill: none; stroke: black; vector-effect: non-scaling-stroke; stroke-linecap: round; stroke-linejoin: round; stroke-width: 14px;"/>
  <polyline points="264.872 141.341 264.801 140.639 264.583 139.971 264.232 139.36 263.763 138.834 263.194 138.412 262.555 138.123" style="fill: none; stroke: black; vector-effect: non-scaling-stroke; stroke-linecap: round; stroke-linejoin: round; stroke-width: 14px;"/>
  <polyline points="262.569 193.96 219.365 208.598" style="fill: none; stroke: black; vector-effect: non-scaling-stroke; stroke-linecap: round; stroke-linejoin: round; stroke-width: 14px;"/>
  <polyline points="185.772 112.529 262.555 138.123" style="fill: none; stroke: black; vector-effect: non-scaling-stroke; stroke-linecap: round; stroke-linejoin: round; stroke-width: 14px;"/>
  <polyline points="183.45 109.311 183.521 110.012 183.739 110.681 184.09 111.292 184.559 111.818 185.127 112.235 185.772 112.529" style="fill: none; stroke: black; vector-effect: non-scaling-stroke; stroke-linecap: round; stroke-linejoin: round; stroke-width: 14px;"/>
  <polyline points="183.45 89.318 183.45 109.311" style="fill: none; stroke: black; vector-effect: non-scaling-stroke; stroke-linecap: round; stroke-linejoin: round; stroke-width: 14px;"/>
  <polyline points="187.914 86.1 187.222 85.949 186.506 85.944 185.81 86.086 185.161 86.375 184.582 86.792 184.104 87.318 183.744 87.934 183.526 88.612 183.45 89.318" style="fill: none; stroke: black; vector-effect: non-scaling-stroke; stroke-linecap: round; stroke-linejoin: round; stroke-width: 14px;"/>
  <polyline points="285.021 214.389 284.367 214.692 283.789 215.128 283.32 215.673 282.974 216.308 282.77 217 282.718 217.721 282.823 218.436 283.074 219.114 283.462 219.72 283.969 220.232" style="fill: none; stroke: black; vector-effect: non-scaling-stroke; stroke-linecap: round; stroke-linejoin: round; stroke-width: 14px;"/>
  <polyline points="244.272 313.454 247.03 313.146 249.76 312.653 252.452 311.971 255.086 311.113 257.66 310.07 260.157 308.862 262.564 307.483 264.872 305.943 267.071 304.246 269.151 302.408 271.099 300.432 272.904 298.328 274.568 296.105 276.07 293.774 277.416 291.347 278.591 288.831 279.591 286.244 280.41 283.595 281.055 280.894 281.505 278.159 281.775 275.396 281.851 272.624 281.742 269.852 281.444 267.094 280.955 264.36 280.283 261.668 279.43 259.029 278.401 256.451 277.193 253.953 275.823 251.541 274.288 249.229 272.601 247.025 270.772 244.94 268.8 242.988 266.701 241.173 264.483 239.505 262.157 237.993 259.73 236.643 257.224 235.463 254.636 234.453 251.987 233.624 249.291 232.975 246.557 232.51 243.794 232.236 241.022 232.15 238.249 232.254 235.491 232.544 232.757 233.022 230.061 233.686 227.421 234.534 224.839 235.557 222.337 236.752 219.92 238.116 217.602 239.642 215.394 241.325 213.309 243.154 211.347 245.116 209.528 247.21 207.855 249.423 206.334 251.745 204.978 254.167 203.789 256.674 202.77 259.251 201.931 261.9 201.277 264.597 200.808 267.331 200.524 270.089 200.429 272.861" style="fill: none; stroke: black; vector-effect: non-scaling-stroke; stroke-linecap: round; stroke-linejoin: round; stroke-width: 14px;"/>
  <polyline points="244.713 340.621 248.248 340.342 251.769 339.877 255.257 339.233 258.707 338.404 262.109 337.394 265.455 336.21 268.734 334.854 271.938 333.324 275.056 331.632 278.079 329.779 281.003 327.77 283.822 325.614 286.519 323.311 289.097 320.865 291.537 318.297 293.845 315.596 296.006 312.786 298.02 309.862 299.878 306.838 301.574 303.72 303.1 300.517 304.465 297.242 305.649 293.897 306.663 290.499 307.493 287.049 308.147 283.561 308.611 280.041 308.895 276.505 308.995 272.956 308.905 269.411 308.635 265.871 308.175 262.355 307.535 258.863 306.711 255.413 305.711 252.011 304.531 248.66 303.18 245.381 301.659 242.173 299.972 239.055 298.124 236.022 296.12 233.093 293.963 230.274 291.665 227.573 289.229 224.995 286.661 222.545 283.969 220.232" style="fill: none; stroke: black; vector-effect: non-scaling-stroke; stroke-linecap: round; stroke-linejoin: round; stroke-width: 14px;"/>
  <polyline points="219.365 208.598 216.067 209.811 212.83 211.195 209.674 212.745 206.604 214.456 203.623 216.327 200.742 218.346 197.974 220.512 195.321 222.82 192.785 225.26 190.388 227.828 188.122 230.52 185.999 233.325 184.023 236.235 182.204 239.244 180.54 242.343 179.038 245.523 177.706 248.779 176.545 252.096 175.555 255.47 174.74 258.896 174.105 262.351 173.65 265.838 173.38 269.345 173.29 272.861" style="fill: none; stroke: black; vector-effect: non-scaling-stroke; stroke-linecap: round; stroke-linejoin: round; stroke-width: 14px;"/>
  <polyline points="244.272 313.454 243.562 313.586 242.898 313.866 242.306 314.278 241.813 314.809 241.443 315.43 241.216 316.117 241.14 316.837" style="fill: none; stroke: black; vector-effect: non-scaling-stroke; stroke-linecap: round; stroke-linejoin: round; stroke-width: 14px;"/>
  <polyline points="132.574 228.89 132.574 208.489" style="fill: none; stroke: black; vector-effect: non-scaling-stroke; stroke-linecap: round; stroke-linejoin: round; stroke-width: 14px;"/>
  <polyline points="241.14 316.837 241.14 337.233" style="fill: none; stroke: black; vector-effect: non-scaling-stroke; stroke-linecap: round; stroke-linejoin: round; stroke-width: 14px;"/>
  <polyline points="129.447 232.273 130.153 232.141 130.821 231.861 131.413 231.444 131.906 230.913 132.271 230.293 132.498 229.605 132.574 228.89" style="fill: none; stroke: black; vector-effect: non-scaling-stroke; stroke-linecap: round; stroke-linejoin: round; stroke-width: 14px;"/>
  <polyline points="132.574 208.489 132.484 207.712 132.219 206.973 131.788 206.314 131.219 205.774 130.541 205.381 129.788 205.153 129.006 205.101" style="fill: none; stroke: black; vector-effect: non-scaling-stroke; stroke-linecap: round; stroke-linejoin: round; stroke-width: 14px;"/>
  <polyline points="241.14 337.233 241.23 338.015 241.5 338.75 241.931 339.408 242.5 339.948 243.178 340.342 243.926 340.574 244.713 340.621" style="fill: none; stroke: black; vector-effect: non-scaling-stroke; stroke-linecap: round; stroke-linejoin: round; stroke-width: 14px;"/>
  <polyline points="129.447 232.273 126.689 232.577 123.954 233.074 121.267 233.752 118.628 234.614 116.055 235.652 113.557 236.865 111.15 238.244 108.842 239.784 106.643 241.476 104.568 243.315 102.62 245.291 100.81 247.395 99.151 249.617 97.644 251.949 96.303 254.38 95.128 256.891 94.128 259.479 93.304 262.128 92.664 264.829 92.209 267.568 91.944 270.331 91.863 273.103 91.977 275.875 92.275 278.633 92.763 281.363 93.432 284.059 94.285 286.699 95.318 289.272 96.521 291.774 97.896 294.186 99.426 296.498 101.113 298.702 102.947 300.782 104.919 302.735 107.018 304.55 109.236 306.218 111.562 307.729 113.984 309.08 116.495 310.265 119.078 311.274 121.727 312.103 124.423 312.752 127.162 313.212 129.92 313.487 132.697 313.572 135.47 313.473 138.228 313.179 140.962 312.7 143.653 312.037 146.298 311.193 148.876 310.17 151.378 308.971 153.794 307.606 156.112 306.08 158.32 304.403 160.41 302.574 162.367 300.607 164.191 298.517 165.864 296.304 167.381 293.982 168.741 291.561 169.93 289.054 170.944 286.471 171.783 283.827 172.442 281.13 172.911 278.396 173.195 275.633 173.29 272.861" style="fill: none; stroke: black; vector-effect: non-scaling-stroke; stroke-linecap: round; stroke-linejoin: round; stroke-width: 14px;"/>
  <polyline points="129.006 205.101 125.466 205.381 121.94 205.85 118.448 206.494 114.998 207.328 111.591 208.338 108.24 209.522 104.961 210.882 101.753 212.413 98.635 214.11 95.607 215.967 92.678 217.976 89.863 220.142 87.162 222.45 84.584 224.895 82.139 227.473 79.836 230.174 77.67 232.994 75.661 235.922 73.804 238.95 72.112 242.073 70.581 245.277 69.226 248.561 68.041 251.911 67.032 255.313 66.203 258.768 65.558 262.261 65.094 265.781 64.814 269.326 64.724 272.875 64.814 276.425 65.094 279.969 65.558 283.49 66.207 286.983 67.037 290.437 68.046 293.84 69.235 297.19 70.595 300.469 72.121 303.678 73.818 306.801 75.675 309.829 77.689 312.752 79.85 315.572 82.158 318.273 84.603 320.851 87.181 323.292 89.882 325.599 92.702 327.76 95.63 329.774 98.659 331.632 101.781 333.324 104.985 334.854 108.269 336.21 111.614 337.399 115.022 338.404 118.476 339.233 121.969 339.882 125.49 340.346 129.03 340.621 132.584 340.716 136.133 340.621 139.673 340.342 143.199 339.877 146.691 339.233 150.141 338.404 153.548 337.394 156.898 336.205 160.178 334.849 163.386 333.319 166.509 331.622 169.537 329.765 172.461 327.755 175.28 325.59 177.981 323.287 180.559 320.842 183.004 318.264 185.308 315.563 187.473 312.743 189.482 309.814 191.34 306.786 193.036 303.663 194.562 300.46 195.922 297.176 197.107 293.83 198.116 290.423 198.946 286.969 199.595 283.476 200.059 279.955 200.334 276.415 200.429 272.861" style="fill: none; stroke: black; vector-effect: non-scaling-stroke; stroke-linecap: round; stroke-linejoin: round; stroke-width: 14px;"/>
  <polyline points="418.144 162.845 187.914 86.1" style="fill: none; stroke: black; vector-effect: non-scaling-stroke; stroke-linecap: round; stroke-linejoin: round; stroke-width: 14px;"/>
  <polyline points="296.48 149.43 295.783 149.278 295.072 149.273 294.376 149.42 293.722 149.705 293.144 150.122 292.67 150.648 292.31 151.264 292.092 151.941 292.016 152.652" style="fill: none; stroke: black; vector-effect: non-scaling-stroke; stroke-linecap: round; stroke-linejoin: round; stroke-width: 14px;"/>
  <polyline points="292.016 179.213 292.016 152.652" style="fill: none; stroke: black; vector-effect: non-scaling-stroke; stroke-linecap: round; stroke-linejoin: round; stroke-width: 14px;"/>
  <polyline points="292.016 179.213 292.111 180.009 292.385 180.758 292.831 181.421 293.419 181.962 294.115 182.355 294.888 182.568 295.684 182.597 296.471 182.435" style="fill: none; stroke: black; vector-effect: non-scaling-stroke; stroke-linecap: round; stroke-linejoin: round; stroke-width: 14px;"/>
  <polyline points="296.48 149.43 336.58 162.798" style="fill: none; stroke: black; vector-effect: non-scaling-stroke; stroke-linecap: round; stroke-linejoin: round; stroke-width: 14px;"/>
  <polyline points="336.57 169.238 337.267 168.916 337.878 168.447 338.361 167.849 338.702 167.158 338.878 166.409 338.878 165.636 338.708 164.888 338.371 164.196 337.887 163.599 337.281 163.125 336.58 162.798" style="fill: none; stroke: black; vector-effect: non-scaling-stroke; stroke-linecap: round; stroke-linejoin: round; stroke-width: 14px;"/>
  <polyline points="336.57 169.238 296.471 182.435" style="fill: none; stroke: black; vector-effect: non-scaling-stroke; stroke-linecap: round; stroke-linejoin: round; stroke-width: 14px;"/>
  <polyline points="418.163 169.276 418.855 168.949 419.456 168.475 419.94 167.878 420.272 167.186 420.442 166.437 420.442 165.67 420.267 164.926 419.93 164.234 419.447 163.641 418.84 163.167 418.144 162.845" style="fill: none; stroke: black; vector-effect: non-scaling-stroke; stroke-linecap: round; stroke-linejoin: round; stroke-width: 14px;"/>
  <polyline points="285.021 214.389 418.163 169.276" style="fill: none; stroke: black; vector-effect: non-scaling-stroke; stroke-linecap: round; stroke-linejoin: round; stroke-width: 14px;"/>
</svg>